<svg width="41" height="69" viewBox="0 0 41 69" fill="none" xmlns="http://www.w3.org/2000/svg">
<rect x="1" y="1" width="29.4256" height="29.8149" rx="1.50739" fill="#FFD84F" stroke="#333333" stroke-width="1.5"/>
<path d="M16.3012 17.2192C12.7231 17.2192 10.8869 19.3659 10.8869 24.1363V39.64C8.76829 40.1171 4.53101 42.7408 4.53101 49.4193C4.53101 57.7675 7.82667 67.0698 21.0093 68.0238C34.192 68.9779 38.4293 62.7764 39.2532 51.9238C40.1247 40.4444 35.1336 35.5852 33.015 38.2089C32.0733 36.0623 29.7193 33.6771 27.1298 35.5852C25.8116 31.7689 22.5002 32.723 21.0093 33.6771V24.1363C21.0093 19.6044 19.8794 17.2192 16.3012 17.2192Z" fill="#FFD84F"/>
<path d="M10.8869 49.4193V39.64M10.8869 39.64C10.8869 39.64 10.8869 28.9067 10.8869 24.1363C10.8869 19.3659 12.7231 17.2192 16.3012 17.2192C19.8794 17.2192 21.0093 19.6044 21.0093 24.1363C21.0093 28.6682 21.0093 33.6771 21.0093 33.6771C22.5002 32.723 25.8116 31.7689 27.1298 35.5852C29.7193 33.6771 32.0733 36.0623 33.015 38.2089C35.1336 35.5852 40.1247 40.4444 39.2532 51.9238C38.4293 62.7764 34.192 68.9779 21.0093 68.0238C7.82667 67.0698 4.53101 57.7675 4.53101 49.4193C4.53101 42.7408 8.76829 40.1171 10.8869 39.64Z" stroke="#333333" stroke-width="1.5"/>
</svg>
