<svg width="48" height="63" viewBox="0 0 48 63" fill="none" xmlns="http://www.w3.org/2000/svg">
<rect x="0.75" y="0.75" width="46.4429" height="60.8258" fill="#FFD84F" stroke="#333333" stroke-width="1.5"/>
<path d="M38.6228 21.2251C38.6228 28.9333 32.2943 35.1977 24.4683 35.1977C16.6422 35.1977 10.3137 28.9333 10.3137 21.2251C10.3137 13.5169 16.6422 7.25244 24.4683 7.25244C32.2943 7.25244 38.6228 13.5169 38.6228 21.2251Z" fill="#FFD84F" stroke="#333333" stroke-width="1.5"/>
<rect x="9.03039" y="41.193" width="30.5036" height="0.920164" rx="0.460082" fill="#FFD84F" stroke="#333333" stroke-width="0.920164"/>
<rect x="9.03039" y="47.818" width="30.5036" height="0.920164" rx="0.460082" fill="#FFD84F" stroke="#333333" stroke-width="0.920164"/>
<rect x="9.03039" y="54.443" width="30.5036" height="0.920164" rx="0.460082" fill="#FFD84F" stroke="#333333" stroke-width="0.920164"/>
<path d="M20.8666 18.0351C20.8666 15.5377 22.4586 14.7184 24.3443 14.5966V20.9938C26.2363 21.5062 28.1946 21.9029 28.1946 23.6788C28.1946 26.2144 27.0444 27.3463 24.3443 27.568V20.9938C22.5764 20.515 20.8666 19.9353 20.8666 18.0351Z" fill="#FFD84F"/>
<path d="M29.0641 15.2133C26.4144 14.559 20.8666 13.373 20.8666 18.0351C20.8666 21.9688 28.1946 20.2436 28.1946 23.6788C28.1946 27.1141 26.0832 27.9729 20.8666 27.4822M24.3443 12.5142V29.9359" stroke="#333333" stroke-width="1.5"/>
</svg>
