<svg width="70" height="68" viewBox="0 0 70 68" fill="none" xmlns="http://www.w3.org/2000/svg">
<rect x="6.84778" y="0.75" width="55.8212" height="49.3459" fill="#FFD84F" stroke="#333333" stroke-width="1.5"/>
<path d="M11.4641 10.6135C11.4641 7.4672 13.5958 6.4351 16.1208 6.28168V14.3408C18.6541 14.9863 21.2763 15.4861 21.2763 17.7234C21.2763 20.9176 19.7361 22.3437 16.1208 22.6229V14.3408C13.7536 13.7376 11.4641 13.0073 11.4641 10.6135Z" fill="#FFD84F"/>
<path d="M22.4405 7.0586C18.8926 6.23426 11.4641 4.74014 11.4641 10.6135C11.4641 15.5691 21.2763 13.3957 21.2763 17.7234C21.2763 22.0511 18.4491 23.1331 11.4641 22.5148M16.1208 3.6582V25.606" stroke="#333333" stroke-width="1.5"/>
<rect x="25.0932" y="5.82199" width="29.9414" height="0.914494" rx="0.457247" fill="#FFD84F" stroke="#333333" stroke-width="0.914494"/>
<rect x="25.0932" y="12.407" width="29.9414" height="0.914494" rx="0.457247" fill="#FFD84F" stroke="#333333" stroke-width="0.914494"/>
<rect x="25.0932" y="18.9909" width="29.9414" height="0.914494" rx="0.457247" fill="#FFD84F" stroke="#333333" stroke-width="0.914494"/>
<path d="M56.2237 35.604L61.9558 36.2137V53.2842L56.7115 52.9184L38.1736 58.5273L29.7584 65.3555L13.7816 55.8448L32.4607 40.9093C28.3179 44.2148 26.2529 40.8905 25.7337 38.7743L35.8564 29.8732L44.7595 29.1416L56.2237 35.604Z" fill="#FFD84F"/>
<path d="M44.7595 43.2858C40.8567 43.1638 42.0763 37.5549 40.2469 37.0672C38.8717 36.7006 38.3235 36.4028 35.8564 38.1942M35.8564 38.1942C35.0416 38.7858 34.0176 39.6052 32.6854 40.7252C28.3924 44.3344 26.2622 40.9284 25.7337 38.7743L35.8564 29.8732L44.7595 29.1416L56.2237 35.604L61.9558 36.2137V53.2842L56.7115 52.9184L38.1736 58.5273L29.7584 65.3555L13.7816 55.8448L35.8564 38.1942Z" stroke="#333333" stroke-width="1.5"/>
<path d="M8.29309 35.8483H12.4397L23.4161 29.5078H32.929L34.0343 31.3368L25.7334 38.6527C25.7715 40.1159 26.6664 42.8594 29.941 42.1278C33.2156 41.3962 36.4413 38.6121 37.6448 37.3115L45.308 49.9925C47.4423 51.8824 48.9668 56.211 47.4423 57.3694C45.5 58.8452 42.5915 56.0738 39.9717 53.0468C42.1926 55.8158 44.0077 58.5782 42.9297 59.6251C41.6131 60.9039 37.2507 57.3028 33.9806 54.3353C36.7854 57.031 39.803 60.4336 38.2953 62.1248C36.2951 64.3683 20.794 56.9223 13.2935 52.9188H8.29309V35.8483Z" fill="#FFD84F" stroke="#333333" stroke-width="1.5"/>
<rect x="0.75" y="31.9648" width="9.35444" height="26.7883" fill="#FFD84F" stroke="#333333" stroke-width="1.5"/>
<rect x="-1.04325" y="-0.191998" width="3.7847" height="9.59177" rx="1.51108" transform="matrix(-0.823473 0.567356 -0.567529 -0.823353 33.8158 64.0099)" fill="#FFD84F" stroke="#333333" stroke-width="1.5"/>
<path d="M44.6373 43.2858C40.7346 43.1638 41.9542 37.5549 40.1248 37.0672C38.7496 36.7006 38.2014 36.4028 35.7343 38.1942C34.9195 38.7858 33.8955 39.6052 32.5633 40.7252C28.2703 44.3344 26.1401 40.9284 25.6116 38.7743L35.7343 29.8732L44.6373 29.1416L56.1016 35.604L61.8337 36.2137V53.2842L56.5894 52.9184" stroke="#333333" stroke-width="1.5"/>
<rect x="0.279311" y="1.02312" width="3.78479" height="10.6998" rx="1.51108" transform="matrix(0.868417 0.495834 -0.496003 0.868321 18.0595 47.3317)" fill="#FFD84F" stroke="#333333" stroke-width="1.5"/>
<rect x="0.279311" y="1.02312" width="4.24751" height="12.2745" rx="1.51108" transform="matrix(0.868417 0.495834 -0.496003 0.868321 23.295 47.9796)" fill="#FFD84F" stroke="#333333" stroke-width="1.5"/>
<rect x="0.279311" y="1.02312" width="3.78479" height="11.5498" rx="1.51108" transform="matrix(0.868417 0.495834 -0.496003 0.868321 28.1538 50.382)" fill="#FFD84F" stroke="#333333" stroke-width="1.5"/>
<rect x="0.279311" y="1.02312" width="3.78479" height="9.59158" rx="1.51108" transform="matrix(0.868417 0.495834 -0.496003 0.868321 31.4582 54.8649)" fill="#FFD84F" stroke="#333333" stroke-width="1.5"/>
<rect x="59.4127" y="31.9648" width="9.35444" height="26.7883" fill="#FFD84F" stroke="#333333" stroke-width="1.5"/>
</svg>
