<svg width="75" height="65" viewBox="0 0 75 65" fill="none" xmlns="http://www.w3.org/2000/svg">
<rect x="0.954048" y="0.512916" width="43.6779" height="18.2756" transform="matrix(0.9636 -0.267349 0.308464 0.951236 2.39458 12.3582)" fill="#FFD84F" stroke="#333333" stroke-width="1.5"/>
<path d="M35.2461 29.1378L35.0917 28.7406L34.6568 28.687L22.2347 27.157L30.5048 1.71942L73.3754 13.6445L57.6652 59.6989L42.8471 48.6921L35.2461 29.1378Z" fill="#FFD84F" stroke="#333333" stroke-width="1.5"/>
<mask id="path-3-inside-1" fill="white">
<path d="M40.5709 43.047C40.5709 52.1908 32.5572 59.6033 22.6718 59.6033C12.7864 59.6033 4.77271 52.1908 4.77271 43.047C4.77271 33.9032 12.7864 26.4907 22.6718 26.4907C32.5572 26.4907 40.5709 33.9032 40.5709 43.047Z"/>
</mask>
<path d="M40.5709 43.047C40.5709 52.1908 32.5572 59.6033 22.6718 59.6033C12.7864 59.6033 4.77271 52.1908 4.77271 43.047C4.77271 33.9032 12.7864 26.4907 22.6718 26.4907C32.5572 26.4907 40.5709 33.9032 40.5709 43.047Z" fill="#FFD84F"/>
<path d="M39.0709 43.047C39.0709 51.2544 31.8411 58.1033 22.6718 58.1033V61.1033C33.2734 61.1033 42.0709 53.1273 42.0709 43.047H39.0709ZM22.6718 58.1033C13.5025 58.1033 6.27271 51.2544 6.27271 43.047H3.27271C3.27271 53.1273 12.0703 61.1033 22.6718 61.1033V58.1033ZM6.27271 43.047C6.27271 34.8397 13.5025 27.9907 22.6718 27.9907V24.9907C12.0703 24.9907 3.27271 32.9668 3.27271 43.047H6.27271ZM22.6718 27.9907C31.8411 27.9907 39.0709 34.8397 39.0709 43.047H42.0709C42.0709 32.9668 33.2734 24.9907 22.6718 24.9907V27.9907Z" fill="#333333" mask="url(#path-3-inside-1)"/>
<mask id="path-5-inside-2" fill="white">
<path d="M33.4114 44.1508C33.4114 50.2467 28.0689 55.1884 21.4786 55.1884C14.8884 55.1884 9.5459 50.2467 9.5459 44.1508C9.5459 38.055 14.8884 33.1133 21.4786 33.1133C28.0689 33.1133 33.4114 38.055 33.4114 44.1508Z"/>
</mask>
<path d="M33.4114 44.1508C33.4114 50.2467 28.0689 55.1884 21.4786 55.1884C14.8884 55.1884 9.5459 50.2467 9.5459 44.1508C9.5459 38.055 14.8884 33.1133 21.4786 33.1133C28.0689 33.1133 33.4114 38.055 33.4114 44.1508Z" fill="#FFD84F"/>
<path d="M31.9114 44.1508C31.9114 49.3103 27.3528 53.6884 21.4786 53.6884V56.6884C28.785 56.6884 34.9114 51.1831 34.9114 44.1508H31.9114ZM21.4786 53.6884C15.6045 53.6884 11.0459 49.3103 11.0459 44.1508H8.0459C8.0459 51.1831 14.1722 56.6884 21.4786 56.6884V53.6884ZM11.0459 44.1508C11.0459 38.9914 15.6045 34.6133 21.4786 34.6133V31.6133C14.1722 31.6133 8.0459 37.1185 8.0459 44.1508H11.0459ZM21.4786 34.6133C27.3528 34.6133 31.9114 38.9914 31.9114 44.1508H34.9114C34.9114 37.1185 28.785 31.6133 21.4786 31.6133V34.6133Z" fill="#333333" mask="url(#path-5-inside-2)"/>
<mask id="path-7-inside-3" fill="white">
<path fill-rule="evenodd" clip-rule="evenodd" d="M44.0655 21.6582C43.3717 21.6582 42.8093 22.2206 42.8093 22.9144V23.544H1.75862C0.787361 23.544 0 24.3313 0 25.3026V62.3817C0 63.353 0.787356 64.1403 1.75861 64.1403H58.6786C59.6498 64.1403 60.4372 63.353 60.4372 62.3817V25.3026C60.4372 24.3313 59.6498 23.544 58.6786 23.544H53.4818V22.9144C53.4818 22.2206 52.9194 21.6582 52.2256 21.6582H44.0655ZM21.7644 57.2633C29.7448 57.2633 36.2141 51.2792 36.2141 43.8975C36.2141 36.5158 29.7448 30.5318 21.7644 30.5318C13.784 30.5318 7.3146 36.5158 7.3146 43.8975C7.3146 51.2792 13.784 57.2633 21.7644 57.2633ZM42.8093 31.0343C42.8093 30.7568 43.0342 30.5318 43.3117 30.5318H52.9792C53.2567 30.5318 53.4817 30.7568 53.4817 31.0343V34.4661C53.4817 34.7436 53.2567 34.9686 52.9792 34.9686H43.3117C43.0342 34.9686 42.8093 34.7436 42.8093 34.4661V31.0343Z"/>
</mask>
<path fill-rule="evenodd" clip-rule="evenodd" d="M44.0655 21.6582C43.3717 21.6582 42.8093 22.2206 42.8093 22.9144V23.544H1.75862C0.787361 23.544 0 24.3313 0 25.3026V62.3817C0 63.353 0.787356 64.1403 1.75861 64.1403H58.6786C59.6498 64.1403 60.4372 63.353 60.4372 62.3817V25.3026C60.4372 24.3313 59.6498 23.544 58.6786 23.544H53.4818V22.9144C53.4818 22.2206 52.9194 21.6582 52.2256 21.6582H44.0655ZM21.7644 57.2633C29.7448 57.2633 36.2141 51.2792 36.2141 43.8975C36.2141 36.5158 29.7448 30.5318 21.7644 30.5318C13.784 30.5318 7.3146 36.5158 7.3146 43.8975C7.3146 51.2792 13.784 57.2633 21.7644 57.2633ZM42.8093 31.0343C42.8093 30.7568 43.0342 30.5318 43.3117 30.5318H52.9792C53.2567 30.5318 53.4817 30.7568 53.4817 31.0343V34.4661C53.4817 34.7436 53.2567 34.9686 52.9792 34.9686H43.3117C43.0342 34.9686 42.8093 34.7436 42.8093 34.4661V31.0343Z" fill="#FFD84F"/>
<path d="M42.8093 23.544V25.044H44.3093V23.544H42.8093ZM53.4818 23.544H51.9818V25.044H53.4818V23.544ZM44.3093 22.9144C44.3093 23.049 44.2001 23.1582 44.0655 23.1582V20.1582C42.5433 20.1582 41.3093 21.3922 41.3093 22.9144H44.3093ZM44.3093 23.544V22.9144H41.3093V23.544H44.3093ZM1.75862 25.044H42.8093V22.044H1.75862V25.044ZM1.5 25.3026C1.5 25.1598 1.61579 25.044 1.75862 25.044V22.044C-0.0410676 22.044 -1.5 23.5029 -1.5 25.3026H1.5ZM1.5 62.3817V25.3026H-1.5V62.3817H1.5ZM1.75861 62.6403C1.61579 62.6403 1.5 62.5246 1.5 62.3817H-1.5C-1.5 64.1814 -0.0410756 65.6403 1.75861 65.6403V62.6403ZM58.6786 62.6403H1.75861V65.6403H58.6786V62.6403ZM58.9372 62.3817C58.9372 62.5245 58.8214 62.6403 58.6786 62.6403V65.6403C60.4783 65.6403 61.9372 64.1814 61.9372 62.3817H58.9372ZM58.9372 25.3026V62.3817H61.9372V25.3026H58.9372ZM58.6786 25.044C58.8214 25.044 58.9372 25.1597 58.9372 25.3026H61.9372C61.9372 23.5029 60.4783 22.044 58.6786 22.044V25.044ZM53.4818 25.044H58.6786V22.044H53.4818V25.044ZM51.9818 22.9144V23.544H54.9818V22.9144H51.9818ZM52.2256 23.1582C52.0909 23.1582 51.9818 23.049 51.9818 22.9144H54.9818C54.9818 21.3922 53.7478 20.1582 52.2256 20.1582V23.1582ZM44.0655 23.1582H52.2256V20.1582H44.0655V23.1582ZM34.7141 43.8975C34.7141 50.3428 29.0286 55.7633 21.7644 55.7633V58.7633C30.4609 58.7633 37.7141 52.2157 37.7141 43.8975H34.7141ZM21.7644 32.0318C29.0286 32.0318 34.7141 37.4523 34.7141 43.8975H37.7141C37.7141 35.5794 30.4609 29.0318 21.7644 29.0318V32.0318ZM8.8146 43.8975C8.8146 37.4523 14.5001 32.0318 21.7644 32.0318V29.0318C13.0678 29.0318 5.8146 35.5794 5.8146 43.8975H8.8146ZM21.7644 55.7633C14.5001 55.7633 8.8146 50.3428 8.8146 43.8975H5.8146C5.8146 52.2157 13.0678 58.7633 21.7644 58.7633V55.7633ZM43.3117 29.0318C42.2058 29.0318 41.3093 29.9283 41.3093 31.0343H44.3093C44.3093 31.5852 43.8626 32.0318 43.3117 32.0318V29.0318ZM52.9792 29.0318H43.3117V32.0318H52.9792V29.0318ZM54.9817 31.0343C54.9817 29.9283 54.0852 29.0318 52.9792 29.0318V32.0318C52.4283 32.0318 51.9817 31.5852 51.9817 31.0343H54.9817ZM54.9817 34.4661V31.0343H51.9817V34.4661H54.9817ZM52.9792 36.4686C54.0852 36.4686 54.9817 35.572 54.9817 34.4661H51.9817C51.9817 33.9152 52.4283 33.4686 52.9792 33.4686V36.4686ZM43.3117 36.4686H52.9792V33.4686H43.3117V36.4686ZM41.3093 34.4661C41.3093 35.572 42.2058 36.4686 43.3117 36.4686V33.4686C43.8626 33.4686 44.3093 33.9152 44.3093 34.4661H41.3093ZM41.3093 31.0343V34.4661H44.3093V31.0343H41.3093Z" fill="#333333" mask="url(#path-7-inside-3)"/>
<mask id="path-9-inside-4" fill="white">
<path d="M28.6386 44.1504C28.6386 47.8079 25.4331 50.7729 21.479 50.7729C17.5248 50.7729 14.3193 47.8079 14.3193 44.1504C14.3193 40.4928 17.5248 37.5278 21.479 37.5278C25.4331 37.5278 28.6386 40.4928 28.6386 44.1504Z"/>
</mask>
<path d="M28.6386 44.1504C28.6386 47.8079 25.4331 50.7729 21.479 50.7729C17.5248 50.7729 14.3193 47.8079 14.3193 44.1504C14.3193 40.4928 17.5248 37.5278 21.479 37.5278C25.4331 37.5278 28.6386 40.4928 28.6386 44.1504Z" fill="#FFD84F"/>
<path d="M27.1386 44.1504C27.1386 46.8714 24.717 49.2729 21.479 49.2729V52.2729C26.1493 52.2729 30.1386 48.7443 30.1386 44.1504H27.1386ZM21.479 49.2729C18.241 49.2729 15.8193 46.8714 15.8193 44.1504H12.8193C12.8193 48.7443 16.8087 52.2729 21.479 52.2729V49.2729ZM15.8193 44.1504C15.8193 41.4293 18.241 39.0278 21.479 39.0278V36.0278C16.8087 36.0278 12.8193 39.5564 12.8193 44.1504H15.8193ZM21.479 39.0278C24.717 39.0278 27.1386 41.4293 27.1386 44.1504H30.1386C30.1386 39.5564 26.1493 36.0278 21.479 36.0278V39.0278Z" fill="#333333" mask="url(#path-9-inside-4)"/>
</svg>
