<svg width="18" height="12" viewBox="0 0 18 12" fill="none" xmlns="http://www.w3.org/2000/svg">
<path fill-rule="evenodd" clip-rule="evenodd" d="M8.91013 10.3354C13.2788 10.3354 16.8203 8.24558 16.8203 5.66769C16.8203 3.0898 13.2788 1 8.91013 1C4.54149 1 1 3.0898 1 5.66769C1 6.86002 1.75762 7.94794 3.00429 8.77296L1.94537 11L5.95511 9.99878C6.86807 10.2159 7.86545 10.3354 8.91013 10.3354Z" fill="#ECE42D"/>
<path d="M3.00429 8.77296L3.45584 8.98766L3.64227 8.59559L3.28022 8.356L3.00429 8.77296ZM1.94537 11L1.49382 10.7853L1.03909 11.7417L2.0665 11.4851L1.94537 11ZM5.95511 9.99878L6.07078 9.51234L5.95222 9.48415L5.83398 9.51367L5.95511 9.99878ZM16.3203 5.66769C16.3203 6.70786 15.6026 7.7391 14.2493 8.53763C12.9074 9.32949 11.0209 9.83538 8.91013 9.83538V10.8354C11.168 10.8354 13.2366 10.2964 14.7575 9.39886C16.2672 8.50802 17.3203 7.20541 17.3203 5.66769H16.3203ZM8.91013 1.5C11.0209 1.5 12.9074 2.00589 14.2493 2.79775C15.6026 3.59628 16.3203 4.62752 16.3203 5.66769H17.3203C17.3203 4.12997 16.2672 2.82736 14.7575 1.93652C13.2366 1.03901 11.168 0.5 8.91013 0.5V1.5ZM1.5 5.66769C1.5 4.62752 2.2177 3.59628 3.57093 2.79775C4.91286 2.00589 6.7994 1.5 8.91013 1.5V0.5C6.65222 0.5 4.58369 1.03901 3.06272 1.93652C1.55304 2.82736 0.5 4.12997 0.5 5.66769H1.5ZM3.28022 8.356C2.11247 7.5832 1.5 6.63033 1.5 5.66769H0.5C0.5 7.08972 1.40277 8.31268 2.72835 9.18992L3.28022 8.356ZM2.39693 11.2147L3.45584 8.98766L2.55273 8.55825L1.49382 10.7853L2.39693 11.2147ZM5.83398 9.51367L1.82424 10.5149L2.0665 11.4851L6.07624 10.4839L5.83398 9.51367ZM8.91013 9.83538C7.90316 9.83538 6.94465 9.72015 6.07078 9.51234L5.83943 10.4852C6.79149 10.7116 7.82774 10.8354 8.91013 10.8354V9.83538Z" fill="#000E8C"/>
</svg>
