<svg width="12" height="16" viewBox="0 0 12 16" fill="none" xmlns="http://www.w3.org/2000/svg">
<ellipse cx="6" cy="14.5" rx="6" ry="1.5" fill="#9CEA39"/>
<path fill-rule="evenodd" clip-rule="evenodd" d="M10.0526 3.52261C10.0526 4.13602 9.87343 4.7128 9.55832 5.21508L6.02633 13.9868L2.4944 5.21523C2.17924 4.71291 2 4.13608 2 3.52261C2 1.57713 3.80264 0 6.02632 0C8.24999 0 10.0526 1.57713 10.0526 3.52261ZM6.02631 5.69834C7.26895 5.69834 8.27631 4.81701 8.27631 3.72982C8.27631 2.64264 7.26895 1.76131 6.02631 1.76131C4.78367 1.76131 3.77631 2.64264 3.77631 3.72982C3.77631 4.81701 4.78367 5.69834 6.02631 5.69834Z" fill="#000E8C"/>
</svg>
