<svg width="15" height="16" viewBox="0 0 15 16" fill="none" xmlns="http://www.w3.org/2000/svg">
<path fill-rule="evenodd" clip-rule="evenodd" d="M9.68472 7.18256C10.6308 6.47014 11.25 5.28512 11.25 3.94366C11.25 1.76564 9.61772 0 7.60418 0C5.59064 0 3.95835 1.76564 3.95835 3.94366C3.95835 5.26648 4.56046 6.43718 5.4844 7.15259C2.34654 7.68415 0.0453688 9.42607 0.0453688 11.493C0.0453688 11.7534 0.0334025 12.0086 0.021761 12.2569C-0.0778752 14.3822 -0.153717 16 7.5 16C15.1537 16 15.0779 14.3822 14.9782 12.2569C14.9666 12.0086 14.9546 11.7534 14.9546 11.493C14.9546 9.46339 12.7358 7.74715 9.68472 7.18256ZM9.68472 7.18256C8.99379 7.05471 8.26018 6.98591 7.5 6.98591C6.80153 6.98591 6.1255 7.04399 5.4844 7.15259C6.08172 7.61511 6.81356 7.88732 7.60418 7.88732C8.37757 7.88732 9.09471 7.62684 9.68472 7.18256Z" fill="#000E8C"/>
</svg>
