<svg width="41" height="69" viewBox="0 0 41 69" fill="none" xmlns="http://www.w3.org/2000/svg">
<rect x="1" y="1" width="29.4256" height="29.8149" rx="1.50739" fill="#ECE42D" stroke="#000E8C" stroke-width="1.5"/>
<path d="M16.3012 17.2194C12.7231 17.2194 10.8869 19.366 10.8869 24.1364V39.6402C8.76829 40.1172 4.53101 42.7409 4.53101 49.4195C4.53101 57.7676 7.82667 67.0699 21.0093 68.024C34.192 68.978 38.4293 62.7765 39.2532 51.9239C40.1247 40.4445 35.1336 35.5853 33.015 38.2091C32.0733 36.0624 29.7193 33.6772 27.1298 35.5853C25.8116 31.769 22.5002 32.7231 21.0093 33.6772V24.1364C21.0093 19.6046 19.8794 17.2194 16.3012 17.2194Z" fill="#ECE42D"/>
<path d="M10.8869 49.4195V39.6402M10.8869 39.6402C10.8869 39.6402 10.8869 28.9068 10.8869 24.1364C10.8869 19.366 12.7231 17.2194 16.3012 17.2194C19.8794 17.2194 21.0093 19.6046 21.0093 24.1364C21.0093 28.6683 21.0093 33.6772 21.0093 33.6772C22.5002 32.7231 25.8116 31.769 27.1298 35.5853C29.7193 33.6772 32.0733 36.0624 33.015 38.2091C35.1336 35.5853 40.1247 40.4445 39.2532 51.9239C38.4293 62.7765 34.192 68.978 21.0093 68.024C7.82667 67.0699 4.53101 57.7676 4.53101 49.4195C4.53101 42.7409 8.76829 40.1172 10.8869 39.6402Z" stroke="#000E8C" stroke-width="1.5"/>
</svg>
