<svg width="85" height="63" viewBox="0 0 85 63" fill="none" xmlns="http://www.w3.org/2000/svg">
<mask id="mask0" mask-type="alpha" maskUnits="userSpaceOnUse" x="0" y="0" width="85" height="63">
<rect width="85" height="63" fill="#C4C4C4"/>
</mask>
<g mask="url(#mask0)">
<mask id="path-2-inside-1" fill="white">
<path fill-rule="evenodd" clip-rule="evenodd" d="M24.1498 29.0684C26.825 26.9388 28.6152 23.0546 28.6152 18.6159C28.6152 11.8877 24.5018 6.43335 19.4277 6.43335C14.3536 6.43335 10.2402 11.8877 10.2402 18.6159C10.2402 23.0691 12.042 26.9642 14.7318 29.0892C6.82638 31.2036 1.00003 38.4716 1 47.1126H37.9601C37.9601 38.4431 32.0951 31.1556 24.1498 29.0684Z"/>
</mask>
<path fill-rule="evenodd" clip-rule="evenodd" d="M24.1498 29.0684C26.825 26.9388 28.6152 23.0546 28.6152 18.6159C28.6152 11.8877 24.5018 6.43335 19.4277 6.43335C14.3536 6.43335 10.2402 11.8877 10.2402 18.6159C10.2402 23.0691 12.042 26.9642 14.7318 29.0892C6.82638 31.2036 1.00003 38.4716 1 47.1126H37.9601C37.9601 38.4431 32.0951 31.1556 24.1498 29.0684Z" fill="#ECE42D"/>
<path d="M24.1498 29.0684L23.2156 27.8948L20.8741 29.7588L23.7687 30.5192L24.1498 29.0684ZM14.7318 29.0892L15.1193 30.5383L18.0077 29.7657L15.6617 27.9122L14.7318 29.0892ZM1 47.1126L-0.5 47.1126L-0.500005 48.6126H1V47.1126ZM37.9601 47.1126V48.6126H39.4601L39.4601 47.1126L37.9601 47.1126ZM27.1152 18.6159C27.1152 22.6849 25.4702 26.1001 23.2156 27.8948L25.084 30.242C28.1798 27.7776 30.1152 23.4243 30.1152 18.6159H27.1152ZM19.4277 7.93335C21.3903 7.93335 23.2786 8.98464 24.7266 10.9047C26.1752 12.8256 27.1152 15.5469 27.1152 18.6159H30.1152C30.1152 14.9567 28.9985 11.5868 27.1218 9.09837C25.2447 6.60923 22.5392 4.93335 19.4277 4.93335V7.93335ZM11.7402 18.6159C11.7402 15.5469 12.6801 12.8256 14.1287 10.9047C15.5768 8.98464 17.465 7.93335 19.4277 7.93335V4.93335C16.3162 4.93335 13.6107 6.60923 11.7335 9.09837C9.85689 11.5868 8.74016 14.9567 8.74016 18.6159H11.7402ZM15.6617 27.9122C13.396 26.1222 11.7402 22.6985 11.7402 18.6159H8.74016C8.74016 23.4397 10.6881 27.8061 13.8019 30.2662L15.6617 27.9122ZM14.3442 27.6401C5.79132 29.9277 -0.499969 37.7836 -0.5 47.1126L2.5 47.1126C2.50003 39.1597 7.86144 32.4795 15.1193 30.5383L14.3442 27.6401ZM1 48.6126H37.9601V45.6126H1V48.6126ZM39.4601 47.1126C39.46 37.7528 33.1271 29.8758 24.5309 27.6176L23.7687 30.5192C31.0631 32.4354 36.4601 39.1333 36.4601 47.1126L39.4601 47.1126Z" fill="#000E8C" mask="url(#path-2-inside-1)"/>
<mask id="path-4-inside-2" fill="white">
<path fill-rule="evenodd" clip-rule="evenodd" d="M71.6136 29.0684C74.2888 26.9388 76.0789 23.0546 76.0789 18.6159C76.0789 11.8877 71.9655 6.43335 66.8914 6.43335C61.8173 6.43335 57.7039 11.8877 57.7039 18.6159C57.7039 23.0691 59.5058 26.9642 62.1955 29.0892C54.2902 31.2037 48.4639 38.4717 48.4639 47.1126H85.424C85.4239 38.443 79.5589 31.1555 71.6136 29.0684Z"/>
</mask>
<path fill-rule="evenodd" clip-rule="evenodd" d="M71.6136 29.0684C74.2888 26.9388 76.0789 23.0546 76.0789 18.6159C76.0789 11.8877 71.9655 6.43335 66.8914 6.43335C61.8173 6.43335 57.7039 11.8877 57.7039 18.6159C57.7039 23.0691 59.5058 26.9642 62.1955 29.0892C54.2902 31.2037 48.4639 38.4717 48.4639 47.1126H85.424C85.4239 38.443 79.5589 31.1555 71.6136 29.0684Z" fill="#ECE42D"/>
<path d="M71.6136 29.0684L70.6794 27.8948L68.3379 29.7588L71.2325 30.5192L71.6136 29.0684ZM62.1955 29.0892L62.5831 30.5383L65.4715 29.7657L63.1254 27.9122L62.1955 29.0892ZM48.4639 47.1126L46.9639 47.1126L46.9639 48.6126H48.4639V47.1126ZM85.424 47.1126V48.6126H86.924L86.924 47.1126L85.424 47.1126ZM74.5789 18.6159C74.5789 22.6848 72.934 26.1 70.6794 27.8948L72.5478 30.2419C75.6436 27.7775 77.5789 23.4243 77.5789 18.6159H74.5789ZM66.8914 7.93335C68.854 7.93335 70.7423 8.98464 72.1904 10.9047C73.639 12.8256 74.5789 15.5469 74.5789 18.6159H77.5789C77.5789 14.9567 76.4622 11.5868 74.5856 9.09837C72.7084 6.60923 70.0029 4.93335 66.8914 4.93335V7.93335ZM59.2039 18.6159C59.2039 15.5469 60.1439 12.8256 61.5925 10.9047C63.0405 8.98464 64.9288 7.93335 66.8914 7.93335V4.93335C63.7799 4.93335 61.0744 6.60923 59.1972 9.09837C57.3206 11.5868 56.2039 14.9567 56.2039 18.6159H59.2039ZM63.1254 27.9122C60.8598 26.1223 59.2039 22.6985 59.2039 18.6159H56.2039C56.2039 23.4397 58.1518 27.8062 61.2657 30.2662L63.1254 27.9122ZM61.808 27.6402C53.2551 29.9278 46.9639 37.7837 46.9639 47.1126L49.9639 47.1126C49.9639 39.1597 55.3253 32.4796 62.5831 30.5383L61.808 27.6402ZM48.4639 48.6126H85.424V45.6126H48.4639V48.6126ZM86.924 47.1126C86.9239 37.7528 80.5909 29.8757 71.9947 27.6176L71.2325 30.5192C78.5269 32.4353 83.9239 39.1333 83.924 47.1126L86.924 47.1126Z" fill="#000E8C" mask="url(#path-4-inside-2)"/>
<mask id="path-6-inside-3" fill="white">
<path fill-rule="evenodd" clip-rule="evenodd" d="M47.3975 33.7103C50.0726 31.5807 51.8628 27.6965 51.8628 23.2579C51.8628 16.5297 47.7494 11.0753 42.6752 11.0753C37.6011 11.0753 33.4877 16.5297 33.4877 23.2579C33.4877 27.711 35.2895 31.606 37.9792 33.7311C30.0739 35.8455 24.2476 43.1136 24.2476 51.7545L61.2076 51.7545C61.2076 43.085 55.3427 35.7975 47.3975 33.7103Z"/>
</mask>
<path fill-rule="evenodd" clip-rule="evenodd" d="M47.3975 33.7103C50.0726 31.5807 51.8628 27.6965 51.8628 23.2579C51.8628 16.5297 47.7494 11.0753 42.6752 11.0753C37.6011 11.0753 33.4877 16.5297 33.4877 23.2579C33.4877 27.711 35.2895 31.606 37.9792 33.7311C30.0739 35.8455 24.2476 43.1136 24.2476 51.7545L61.2076 51.7545C61.2076 43.085 55.3427 35.7975 47.3975 33.7103Z" fill="#ECE42D"/>
<path d="M47.3975 33.7103L46.4633 32.5367L44.1219 34.4007L47.0164 35.161L47.3975 33.7103ZM37.9792 33.7311L38.3668 35.1801L41.2551 34.4076L38.9091 32.5541L37.9792 33.7311ZM24.2476 51.7545H22.7476V53.2545H24.2476L24.2476 51.7545ZM61.2076 51.7545L61.2076 53.2545H62.7076V51.7545H61.2076ZM50.3628 23.2579C50.3628 27.3268 48.7178 30.7419 46.4633 32.5367L48.3317 34.8838C51.4274 32.4194 53.3628 28.0662 53.3628 23.2579H50.3628ZM42.6752 12.5753C44.6379 12.5753 46.5261 13.6266 47.9742 15.5467C49.4228 17.4675 50.3628 20.1889 50.3628 23.2579H53.3628C53.3628 19.5987 52.246 16.2287 50.3694 13.7403C48.4922 11.2512 45.7867 9.57532 42.6752 9.57532V12.5753ZM34.9877 23.2579C34.9877 20.1889 35.9277 17.4675 37.3763 15.5467C38.8243 13.6266 40.7126 12.5753 42.6752 12.5753V9.57532C39.5637 9.57532 36.8583 11.2512 34.9811 13.7403C33.1044 16.2287 31.9877 19.5987 31.9877 23.2579H34.9877ZM38.9091 32.5541C36.6435 30.7641 34.9877 27.3404 34.9877 23.2579H31.9877C31.9877 28.0816 33.9356 32.4479 37.0493 34.908L38.9091 32.5541ZM25.7476 51.7545C25.7476 43.8016 31.1089 37.1214 38.3668 35.1801L37.5916 32.282C29.0388 34.5697 22.7476 42.4255 22.7476 51.7545H25.7476ZM61.2076 50.2545L24.2476 50.2545L24.2476 53.2545L61.2076 53.2545L61.2076 50.2545ZM47.0164 35.161C54.3107 37.0773 59.7076 43.7752 59.7076 51.7545H62.7076C62.7076 42.3947 56.3748 34.5177 47.7786 32.2595L47.0164 35.161Z" fill="#000E8C" mask="url(#path-6-inside-3)"/>
<mask id="path-8-inside-4" fill="white">
<path fill-rule="evenodd" clip-rule="evenodd" d="M28.2751 37.8817C35.2891 44.9583 46.1206 45.8359 54.0815 40.5147L72.7356 59.3349L78.5348 53.484L59.8808 34.6638C65.1552 26.6319 64.2854 15.7038 57.2713 8.62725C49.2642 0.548843 36.2822 0.548843 28.2751 8.62725C20.268 16.7057 20.268 29.8033 28.2751 37.8817ZM33.1075 33.006C38.4455 38.3916 47.1002 38.3916 52.4383 33.006C57.7763 27.6204 57.7763 18.8886 52.4383 13.503C47.1002 8.11736 38.4455 8.11736 33.1075 13.503C27.7694 18.8886 27.7694 27.6204 33.1075 33.006Z"/>
</mask>
<path fill-rule="evenodd" clip-rule="evenodd" d="M28.2751 37.8817C35.2891 44.9583 46.1206 45.8359 54.0815 40.5147L72.7356 59.3349L78.5348 53.484L59.8808 34.6638C65.1552 26.6319 64.2854 15.7038 57.2713 8.62725C49.2642 0.548843 36.2822 0.548843 28.2751 8.62725C20.268 16.7057 20.268 29.8033 28.2751 37.8817ZM33.1075 33.006C38.4455 38.3916 47.1002 38.3916 52.4383 33.006C57.7763 27.6204 57.7763 18.8886 52.4383 13.503C47.1002 8.11736 38.4455 8.11736 33.1075 13.503C27.7694 18.8886 27.7694 27.6204 33.1075 33.006Z" fill="#ECE42D"/>
<path d="M54.0815 40.5147L55.1375 39.4493L54.2744 38.5785L53.2568 39.2587L54.0815 40.5147ZM72.7356 59.3349L71.6796 60.4002L72.7356 61.4656L73.7915 60.4002L72.7356 59.3349ZM78.5348 53.484L79.5907 54.5493L80.6467 53.484L79.5907 52.4186L78.5348 53.484ZM59.8808 34.6638L58.6359 33.8317L57.9617 34.8583L58.8249 35.7292L59.8808 34.6638ZM53.2568 39.2587C45.8762 44.192 35.833 43.3763 29.331 36.8164L27.2192 38.9471C34.7453 46.5403 46.365 47.4798 54.9063 41.7707L53.2568 39.2587ZM73.7915 58.2695L55.1375 39.4493L53.0256 41.58L71.6796 60.4002L73.7915 58.2695ZM77.4788 52.4186L71.6796 58.2695L73.7915 60.4002L79.5907 54.5493L77.4788 52.4186ZM58.8249 35.7292L77.4788 54.5493L79.5907 52.4186L60.9368 33.5985L58.8249 35.7292ZM56.2153 9.6926C62.7173 16.2525 63.5258 26.3853 58.6359 33.8317L61.1257 35.4959C66.7846 26.8785 65.8534 15.1551 58.3272 7.5619L56.2153 9.6926ZM29.331 9.6926C36.7549 2.20257 48.7914 2.20257 56.2153 9.6926L58.3272 7.5619C49.737 -1.10489 35.8094 -1.10489 27.2192 7.5619L29.331 9.6926ZM29.331 36.8164C21.9072 29.3264 21.9072 17.1826 29.331 9.6926L27.2192 7.5619C18.6289 16.2287 18.6289 30.2803 27.2192 38.9471L29.331 36.8164ZM51.3823 31.9406C46.6274 36.7378 38.9183 36.7378 34.1634 31.9406L32.0515 34.0713C37.9728 40.0453 47.573 40.0453 53.4942 34.0713L51.3823 31.9406ZM51.3823 14.5683C56.1372 19.3655 56.1372 27.1434 51.3823 31.9406L53.4942 34.0713C59.4154 28.0973 59.4154 18.4116 53.4942 12.4376L51.3823 14.5683ZM34.1634 14.5683C38.9183 9.77109 46.6274 9.77109 51.3823 14.5683L53.4942 12.4376C47.573 6.46363 37.9728 6.46363 32.0515 12.4376L34.1634 14.5683ZM34.1634 31.9406C29.4086 27.1434 29.4086 19.3655 34.1634 14.5683L32.0515 12.4376C26.1303 18.4116 26.1303 28.0973 32.0515 34.0713L34.1634 31.9406Z" fill="#000E8C" mask="url(#path-8-inside-4)"/>
</g>
</svg>
