<svg width="85" height="63" viewBox="0 0 85 63" fill="none" xmlns="http://www.w3.org/2000/svg">
<mask id="mask0" mask-type="alpha" maskUnits="userSpaceOnUse" x="0" y="0" width="85" height="63">
<rect x="0.5" y="0.5" width="84" height="62" fill="#FFD84F" stroke="#333333"/>
</mask>
<g mask="url(#mask0)">
<mask id="path-2-inside-1" fill="white">
<path fill-rule="evenodd" clip-rule="evenodd" d="M24.1498 29.0686C26.825 26.9391 28.6152 23.0548 28.6152 18.6162C28.6152 11.8879 24.5018 6.43359 19.4277 6.43359C14.3536 6.43359 10.2402 11.8879 10.2402 18.6162C10.2402 23.0693 12.042 26.9644 14.7318 29.0895C6.82638 31.2039 1.00003 38.4719 1 47.1129H37.9601C37.9601 38.4433 32.0951 31.1558 24.1498 29.0686Z"/>
</mask>
<path fill-rule="evenodd" clip-rule="evenodd" d="M24.1498 29.0686C26.825 26.9391 28.6152 23.0548 28.6152 18.6162C28.6152 11.8879 24.5018 6.43359 19.4277 6.43359C14.3536 6.43359 10.2402 11.8879 10.2402 18.6162C10.2402 23.0693 12.042 26.9644 14.7318 29.0895C6.82638 31.2039 1.00003 38.4719 1 47.1129H37.9601C37.9601 38.4433 32.0951 31.1558 24.1498 29.0686Z" fill="#FFD84F"/>
<path d="M24.1498 29.0686L23.2156 27.8951L20.8741 29.759L23.7687 30.5194L24.1498 29.0686ZM14.7318 29.0895L15.1193 30.5385L18.0077 29.766L15.6617 27.9125L14.7318 29.0895ZM1 47.1129L-0.5 47.1129L-0.500005 48.6129H1V47.1129ZM37.9601 47.1129V48.6129H39.4601L39.4601 47.1129L37.9601 47.1129ZM27.1152 18.6162C27.1152 22.6851 25.4702 26.1003 23.2156 27.8951L25.084 30.2422C28.1798 27.7778 30.1152 23.4246 30.1152 18.6162H27.1152ZM19.4277 7.93359C21.3903 7.93359 23.2786 8.98488 24.7266 10.905C26.1752 12.8258 27.1152 15.5472 27.1152 18.6162H30.1152C30.1152 14.9569 28.9985 11.587 27.1218 9.09862C25.2447 6.60948 22.5392 4.93359 19.4277 4.93359V7.93359ZM11.7402 18.6162C11.7402 15.5472 12.6801 12.8258 14.1287 10.905C15.5768 8.98488 17.465 7.93359 19.4277 7.93359V4.93359C16.3162 4.93359 13.6107 6.60948 11.7335 9.09862C9.85689 11.587 8.74016 14.9569 8.74016 18.6162H11.7402ZM15.6617 27.9125C13.396 26.1225 11.7402 22.6988 11.7402 18.6162H8.74016C8.74016 23.4399 10.6881 27.8064 13.8019 30.2664L15.6617 27.9125ZM14.3442 27.6404C5.79132 29.928 -0.499969 37.7839 -0.5 47.1129L2.5 47.1129C2.50003 39.1599 7.86144 32.4797 15.1193 30.5385L14.3442 27.6404ZM1 48.6129H37.9601V45.6129H1V48.6129ZM39.4601 47.1129C39.46 37.7531 33.1271 29.876 24.5309 27.6179L23.7687 30.5194C31.0631 32.4356 36.4601 39.1336 36.4601 47.1129L39.4601 47.1129Z" fill="#333333" mask="url(#path-2-inside-1)"/>
<mask id="path-4-inside-2" fill="white">
<path fill-rule="evenodd" clip-rule="evenodd" d="M71.6136 29.0686C74.2888 26.939 76.0789 23.0548 76.0789 18.6162C76.0789 11.8879 71.9655 6.43359 66.8914 6.43359C61.8173 6.43359 57.7039 11.8879 57.7039 18.6162C57.7039 23.0694 59.5058 26.9645 62.1955 29.0895C54.2902 31.2039 48.4639 38.4719 48.4639 47.1129H85.424C85.4239 38.4433 79.5589 31.1558 71.6136 29.0686Z"/>
</mask>
<path fill-rule="evenodd" clip-rule="evenodd" d="M71.6136 29.0686C74.2888 26.939 76.0789 23.0548 76.0789 18.6162C76.0789 11.8879 71.9655 6.43359 66.8914 6.43359C61.8173 6.43359 57.7039 11.8879 57.7039 18.6162C57.7039 23.0694 59.5058 26.9645 62.1955 29.0895C54.2902 31.2039 48.4639 38.4719 48.4639 47.1129H85.424C85.4239 38.4433 79.5589 31.1558 71.6136 29.0686Z" fill="#FFD84F"/>
<path d="M71.6136 29.0686L70.6794 27.8951L68.3379 29.759L71.2325 30.5194L71.6136 29.0686ZM62.1955 29.0895L62.5831 30.5385L65.4715 29.766L63.1254 27.9125L62.1955 29.0895ZM48.4639 47.1129L46.9639 47.1129L46.9639 48.6129H48.4639V47.1129ZM85.424 47.1129V48.6129H86.924L86.924 47.1129L85.424 47.1129ZM74.5789 18.6162C74.5789 22.6851 72.934 26.1003 70.6794 27.8951L72.5478 30.2422C75.6436 27.7778 77.5789 23.4246 77.5789 18.6162H74.5789ZM66.8914 7.93359C68.854 7.93359 70.7423 8.98488 72.1904 10.905C73.639 12.8258 74.5789 15.5472 74.5789 18.6162H77.5789C77.5789 14.9569 76.4622 11.587 74.5856 9.09862C72.7084 6.60948 70.0029 4.93359 66.8914 4.93359V7.93359ZM59.2039 18.6162C59.2039 15.5472 60.1439 12.8258 61.5925 10.905C63.0405 8.98488 64.9288 7.93359 66.8914 7.93359V4.93359C63.7799 4.93359 61.0744 6.60948 59.1972 9.09862C57.3206 11.587 56.2039 14.9569 56.2039 18.6162H59.2039ZM63.1254 27.9125C60.8598 26.1225 59.2039 22.6988 59.2039 18.6162H56.2039C56.2039 23.4399 58.1518 27.8064 61.2657 30.2665L63.1254 27.9125ZM61.808 27.6404C53.2551 29.928 46.9639 37.7839 46.9639 47.1129L49.9639 47.1129C49.9639 39.16 55.3253 32.4798 62.5831 30.5385L61.808 27.6404ZM48.4639 48.6129H85.424V45.6129H48.4639V48.6129ZM86.924 47.1129C86.9239 37.753 80.5909 29.876 71.9947 27.6178L71.2325 30.5194C78.5269 32.4355 83.9239 39.1335 83.924 47.1129L86.924 47.1129Z" fill="#333333" mask="url(#path-4-inside-2)"/>
<mask id="path-6-inside-3" fill="white">
<path fill-rule="evenodd" clip-rule="evenodd" d="M47.3975 33.7101C50.0726 31.5805 51.8628 27.6964 51.8628 23.2578C51.8628 16.5295 47.7494 11.0752 42.6752 11.0752C37.6011 11.0752 33.4877 16.5295 33.4877 23.2578C33.4877 27.7109 35.2895 31.6059 37.9792 33.731C30.0739 35.8454 24.2476 43.1134 24.2476 51.7544L61.2076 51.7544C61.2076 43.0849 55.3427 35.7974 47.3975 33.7101Z"/>
</mask>
<path fill-rule="evenodd" clip-rule="evenodd" d="M47.3975 33.7101C50.0726 31.5805 51.8628 27.6964 51.8628 23.2578C51.8628 16.5295 47.7494 11.0752 42.6752 11.0752C37.6011 11.0752 33.4877 16.5295 33.4877 23.2578C33.4877 27.7109 35.2895 31.6059 37.9792 33.731C30.0739 35.8454 24.2476 43.1134 24.2476 51.7544L61.2076 51.7544C61.2076 43.0849 55.3427 35.7974 47.3975 33.7101Z" fill="#FFD84F"/>
<path d="M47.3975 33.7101L46.4633 32.5366L44.1219 34.4005L47.0164 35.1609L47.3975 33.7101ZM37.9792 33.731L38.3668 35.18L41.2551 34.4075L38.9091 32.554L37.9792 33.731ZM24.2476 51.7544H22.7476V53.2544H24.2476L24.2476 51.7544ZM61.2076 51.7544L61.2076 53.2544H62.7076V51.7544H61.2076ZM50.3628 23.2578C50.3628 27.3266 48.7178 30.7418 46.4633 32.5366L48.3317 34.8837C51.4274 32.4193 53.3628 28.0661 53.3628 23.2578H50.3628ZM42.6752 12.5752C44.6379 12.5752 46.5261 13.6265 47.9742 15.5466C49.4228 17.4674 50.3628 20.1888 50.3628 23.2578H53.3628C53.3628 19.5985 52.246 16.2286 50.3694 13.7402C48.4922 11.2511 45.7867 9.5752 42.6752 9.5752V12.5752ZM34.9877 23.2578C34.9877 20.1888 35.9277 17.4674 37.3763 15.5466C38.8243 13.6265 40.7126 12.5752 42.6752 12.5752V9.5752C39.5637 9.5752 36.8583 11.2511 34.9811 13.7402C33.1044 16.2286 31.9877 19.5985 31.9877 23.2578H34.9877ZM38.9091 32.554C36.6435 30.764 34.9877 27.3403 34.9877 23.2578H31.9877C31.9877 28.0814 33.9356 32.4478 37.0493 34.9079L38.9091 32.554ZM25.7476 51.7544C25.7476 43.8015 31.1089 37.1213 38.3668 35.18L37.5916 32.2819C29.0388 34.5695 22.7476 42.4254 22.7476 51.7544H25.7476ZM61.2076 50.2544L24.2476 50.2544L24.2476 53.2544L61.2076 53.2544L61.2076 50.2544ZM47.0164 35.1609C54.3107 37.0771 59.7076 43.7751 59.7076 51.7544H62.7076C62.7076 42.3946 56.3748 34.5176 47.7786 32.2594L47.0164 35.1609Z" fill="#333333" mask="url(#path-6-inside-3)"/>
<mask id="path-8-inside-4" fill="white">
<path fill-rule="evenodd" clip-rule="evenodd" d="M28.2751 37.8817C35.2891 44.9583 46.1206 45.8359 54.0815 40.5147L72.7356 59.3349L78.5348 53.484L59.8808 34.6638C65.1552 26.6319 64.2854 15.7038 57.2713 8.62725C49.2642 0.548843 36.2822 0.548843 28.2751 8.62725C20.268 16.7057 20.268 29.8033 28.2751 37.8817ZM33.1075 33.006C38.4455 38.3916 47.1002 38.3916 52.4383 33.006C57.7763 27.6204 57.7763 18.8886 52.4383 13.503C47.1002 8.11736 38.4455 8.11736 33.1075 13.503C27.7694 18.8886 27.7694 27.6204 33.1075 33.006Z"/>
</mask>
<path fill-rule="evenodd" clip-rule="evenodd" d="M28.2751 37.8817C35.2891 44.9583 46.1206 45.8359 54.0815 40.5147L72.7356 59.3349L78.5348 53.484L59.8808 34.6638C65.1552 26.6319 64.2854 15.7038 57.2713 8.62725C49.2642 0.548843 36.2822 0.548843 28.2751 8.62725C20.268 16.7057 20.268 29.8033 28.2751 37.8817ZM33.1075 33.006C38.4455 38.3916 47.1002 38.3916 52.4383 33.006C57.7763 27.6204 57.7763 18.8886 52.4383 13.503C47.1002 8.11736 38.4455 8.11736 33.1075 13.503C27.7694 18.8886 27.7694 27.6204 33.1075 33.006Z" fill="#FFD84F"/>
<path d="M54.0815 40.5147L55.1375 39.4493L54.2744 38.5785L53.2568 39.2587L54.0815 40.5147ZM72.7356 59.3349L71.6796 60.4002L72.7356 61.4656L73.7915 60.4002L72.7356 59.3349ZM78.5348 53.484L79.5907 54.5493L80.6467 53.484L79.5907 52.4186L78.5348 53.484ZM59.8808 34.6638L58.6359 33.8317L57.9617 34.8583L58.8249 35.7292L59.8808 34.6638ZM53.2568 39.2587C45.8762 44.192 35.833 43.3763 29.331 36.8164L27.2192 38.9471C34.7453 46.5403 46.365 47.4798 54.9063 41.7707L53.2568 39.2587ZM73.7915 58.2695L55.1375 39.4493L53.0256 41.58L71.6796 60.4002L73.7915 58.2695ZM77.4788 52.4186L71.6796 58.2695L73.7915 60.4002L79.5907 54.5493L77.4788 52.4186ZM58.8249 35.7292L77.4788 54.5493L79.5907 52.4186L60.9368 33.5985L58.8249 35.7292ZM56.2153 9.6926C62.7173 16.2525 63.5258 26.3853 58.6359 33.8317L61.1257 35.4959C66.7846 26.8785 65.8534 15.1551 58.3272 7.5619L56.2153 9.6926ZM29.331 9.6926C36.7549 2.20257 48.7914 2.20257 56.2153 9.6926L58.3272 7.5619C49.737 -1.10489 35.8094 -1.10489 27.2192 7.5619L29.331 9.6926ZM29.331 36.8164C21.9072 29.3264 21.9072 17.1826 29.331 9.6926L27.2192 7.5619C18.6289 16.2287 18.6289 30.2803 27.2192 38.9471L29.331 36.8164ZM51.3823 31.9406C46.6274 36.7378 38.9183 36.7378 34.1634 31.9406L32.0515 34.0713C37.9728 40.0453 47.573 40.0453 53.4942 34.0713L51.3823 31.9406ZM51.3823 14.5683C56.1372 19.3655 56.1372 27.1434 51.3823 31.9406L53.4942 34.0713C59.4154 28.0973 59.4154 18.4116 53.4942 12.4376L51.3823 14.5683ZM34.1634 14.5683C38.9183 9.77109 46.6274 9.77109 51.3823 14.5683L53.4942 12.4376C47.573 6.46363 37.9728 6.46363 32.0515 12.4376L34.1634 14.5683ZM34.1634 31.9406C29.4086 27.1434 29.4086 19.3655 34.1634 14.5683L32.0515 12.4376C26.1303 18.4116 26.1303 28.0973 32.0515 34.0713L34.1634 31.9406Z" fill="#333333" mask="url(#path-8-inside-4)"/>
</g>
</svg>
