<svg width="48" height="63" viewBox="0 0 48 63" fill="none" xmlns="http://www.w3.org/2000/svg">
<rect x="0.75" y="0.75" width="46.4429" height="60.8258" fill="#ECE42D" stroke="#000E8C" stroke-width="1.5"/>
<path d="M38.6228 21.2253C38.6228 28.9335 32.2943 35.1979 24.4683 35.1979C16.6422 35.1979 10.3137 28.9335 10.3137 21.2253C10.3137 13.517 16.6422 7.25262 24.4683 7.25262C32.2943 7.25262 38.6228 13.517 38.6228 21.2253Z" fill="#ECE42D" stroke="#000E8C" stroke-width="1.5"/>
<rect x="9.03039" y="41.1928" width="30.5036" height="0.920164" rx="0.460082" fill="#ECE42D" stroke="#000E8C" stroke-width="0.920164"/>
<rect x="9.03039" y="47.8181" width="30.5036" height="0.920164" rx="0.460082" fill="#ECE42D" stroke="#000E8C" stroke-width="0.920164"/>
<rect x="9.03039" y="54.443" width="30.5036" height="0.920164" rx="0.460082" fill="#ECE42D" stroke="#000E8C" stroke-width="0.920164"/>
<path d="M20.8666 18.0352C20.8666 15.5377 22.4586 14.7185 24.3443 14.5967V20.9939C26.2363 21.5062 28.1946 21.903 28.1946 23.6789C28.1946 26.2144 27.0444 27.3464 24.3443 27.5681V20.9939C22.5764 20.5151 20.8666 19.9354 20.8666 18.0352Z" fill="#ECE42D"/>
<path d="M29.0641 15.2134C26.4144 14.559 20.8666 13.373 20.8666 18.0352C20.8666 21.9689 28.1946 20.2436 28.1946 23.6789C28.1946 27.1142 26.0832 27.973 20.8666 27.4822M24.3443 12.5142V29.936" stroke="#000E8C" stroke-width="1.5"/>
</svg>
