<svg width="75" height="65" viewBox="0 0 75 65" fill="none" xmlns="http://www.w3.org/2000/svg">
<rect x="0.954048" y="0.512916" width="43.6779" height="18.2756" transform="matrix(0.9636 -0.267349 0.308464 0.951236 2.39458 12.3583)" fill="#ECE42D" stroke="#000E8C" stroke-width="1.5"/>
<path d="M35.2461 29.1378L35.0917 28.7406L34.6568 28.687L22.2347 27.157L30.5048 1.71942L73.3754 13.6445L57.6652 59.6989L42.8471 48.6921L35.2461 29.1378Z" fill="#ECE42D" stroke="#000E8C" stroke-width="1.5"/>
<mask id="path-3-inside-1" fill="white">
<path d="M40.5709 43.0467C40.5709 52.1905 32.5572 59.603 22.6718 59.603C12.7864 59.603 4.77271 52.1905 4.77271 43.0467C4.77271 33.9029 12.7864 26.4904 22.6718 26.4904C32.5572 26.4904 40.5709 33.9029 40.5709 43.0467Z"/>
</mask>
<path d="M40.5709 43.0467C40.5709 52.1905 32.5572 59.603 22.6718 59.603C12.7864 59.603 4.77271 52.1905 4.77271 43.0467C4.77271 33.9029 12.7864 26.4904 22.6718 26.4904C32.5572 26.4904 40.5709 33.9029 40.5709 43.0467Z" fill="#ECE42D"/>
<path d="M39.0709 43.0467C39.0709 51.2541 31.8411 58.103 22.6718 58.103V61.103C33.2734 61.103 42.0709 53.127 42.0709 43.0467H39.0709ZM22.6718 58.103C13.5025 58.103 6.27271 51.2541 6.27271 43.0467H3.27271C3.27271 53.127 12.0703 61.103 22.6718 61.103V58.103ZM6.27271 43.0467C6.27271 34.8394 13.5025 27.9904 22.6718 27.9904V24.9904C12.0703 24.9904 3.27271 32.9665 3.27271 43.0467H6.27271ZM22.6718 27.9904C31.8411 27.9904 39.0709 34.8394 39.0709 43.0467H42.0709C42.0709 32.9665 33.2734 24.9904 22.6718 24.9904V27.9904Z" fill="#ECE42D" mask="url(#path-3-inside-1)"/>
<path d="M33.4114 44.1505C33.4114 50.2464 28.0689 55.1881 21.4786 55.1881C14.8884 55.1881 9.5459 50.2464 9.5459 44.1505C9.5459 38.0547 14.8884 33.113 21.4786 33.113C28.0689 33.113 33.4114 38.0547 33.4114 44.1505Z" fill="#000E8C"/>
<mask id="path-6-inside-2" fill="white">
<path fill-rule="evenodd" clip-rule="evenodd" d="M44.0655 21.658C43.3717 21.658 42.8093 22.2204 42.8093 22.9142V23.5438H1.75862C0.787361 23.5438 0 24.3311 0 25.3024V62.3815C0 63.3528 0.787356 64.1402 1.75861 64.1402H58.6786C59.6498 64.1402 60.4372 63.3528 60.4372 62.3815V25.3024C60.4372 24.3311 59.6498 23.5438 58.6786 23.5438H53.4818V22.9142C53.4818 22.2204 52.9194 21.658 52.2256 21.658H44.0655ZM21.7644 57.2631C29.7448 57.2631 36.2141 51.2791 36.2141 43.8974C36.2141 36.5157 29.7448 30.5316 21.7644 30.5316C13.784 30.5316 7.3146 36.5157 7.3146 43.8974C7.3146 51.2791 13.784 57.2631 21.7644 57.2631ZM42.8093 31.0341C42.8093 30.7566 43.0342 30.5316 43.3117 30.5316H52.9792C53.2567 30.5316 53.4817 30.7566 53.4817 31.0341V34.4659C53.4817 34.7434 53.2567 34.9684 52.9792 34.9684H43.3117C43.0342 34.9684 42.8093 34.7434 42.8093 34.4659V31.0341Z"/>
</mask>
<path fill-rule="evenodd" clip-rule="evenodd" d="M44.0655 21.658C43.3717 21.658 42.8093 22.2204 42.8093 22.9142V23.5438H1.75862C0.787361 23.5438 0 24.3311 0 25.3024V62.3815C0 63.3528 0.787356 64.1402 1.75861 64.1402H58.6786C59.6498 64.1402 60.4372 63.3528 60.4372 62.3815V25.3024C60.4372 24.3311 59.6498 23.5438 58.6786 23.5438H53.4818V22.9142C53.4818 22.2204 52.9194 21.658 52.2256 21.658H44.0655ZM21.7644 57.2631C29.7448 57.2631 36.2141 51.2791 36.2141 43.8974C36.2141 36.5157 29.7448 30.5316 21.7644 30.5316C13.784 30.5316 7.3146 36.5157 7.3146 43.8974C7.3146 51.2791 13.784 57.2631 21.7644 57.2631ZM42.8093 31.0341C42.8093 30.7566 43.0342 30.5316 43.3117 30.5316H52.9792C53.2567 30.5316 53.4817 30.7566 53.4817 31.0341V34.4659C53.4817 34.7434 53.2567 34.9684 52.9792 34.9684H43.3117C43.0342 34.9684 42.8093 34.7434 42.8093 34.4659V31.0341Z" fill="#ECE42D"/>
<path d="M42.8093 23.5438V25.0438H44.3093V23.5438H42.8093ZM53.4818 23.5438H51.9818V25.0438H53.4818V23.5438ZM44.3093 22.9142C44.3093 23.0488 44.2001 23.158 44.0655 23.158V20.158C42.5433 20.158 41.3093 21.392 41.3093 22.9142H44.3093ZM44.3093 23.5438V22.9142H41.3093V23.5438H44.3093ZM1.75862 25.0438H42.8093V22.0438H1.75862V25.0438ZM1.5 25.3024C1.5 25.1596 1.61579 25.0438 1.75862 25.0438V22.0438C-0.0410676 22.0438 -1.5 23.5027 -1.5 25.3024H1.5ZM1.5 62.3815V25.3024H-1.5V62.3815H1.5ZM1.75861 62.6402C1.61579 62.6402 1.5 62.5244 1.5 62.3815H-1.5C-1.5 64.1812 -0.0410756 65.6402 1.75861 65.6402V62.6402ZM58.6786 62.6402H1.75861V65.6402H58.6786V62.6402ZM58.9372 62.3815C58.9372 62.5244 58.8214 62.6402 58.6786 62.6402V65.6402C60.4783 65.6402 61.9372 64.1812 61.9372 62.3815H58.9372ZM58.9372 25.3024V62.3815H61.9372V25.3024H58.9372ZM58.6786 25.0438C58.8214 25.0438 58.9372 25.1596 58.9372 25.3024H61.9372C61.9372 23.5027 60.4783 22.0438 58.6786 22.0438V25.0438ZM53.4818 25.0438H58.6786V22.0438H53.4818V25.0438ZM51.9818 22.9142V23.5438H54.9818V22.9142H51.9818ZM52.2256 23.158C52.0909 23.158 51.9818 23.0488 51.9818 22.9142H54.9818C54.9818 21.392 53.7478 20.158 52.2256 20.158V23.158ZM44.0655 23.158H52.2256V20.158H44.0655V23.158ZM34.7141 43.8974C34.7141 50.3426 29.0286 55.7631 21.7644 55.7631V58.7631C30.4609 58.7631 37.7141 52.2155 37.7141 43.8974H34.7141ZM21.7644 32.0316C29.0286 32.0316 34.7141 37.4521 34.7141 43.8974H37.7141C37.7141 35.5792 30.4609 29.0316 21.7644 29.0316V32.0316ZM8.8146 43.8974C8.8146 37.4521 14.5001 32.0316 21.7644 32.0316V29.0316C13.0678 29.0316 5.8146 35.5792 5.8146 43.8974H8.8146ZM21.7644 55.7631C14.5001 55.7631 8.8146 50.3426 8.8146 43.8974H5.8146C5.8146 52.2155 13.0678 58.7631 21.7644 58.7631V55.7631ZM43.3117 29.0316C42.2058 29.0316 41.3093 29.9281 41.3093 31.0341H44.3093C44.3093 31.585 43.8626 32.0316 43.3117 32.0316V29.0316ZM52.9792 29.0316H43.3117V32.0316H52.9792V29.0316ZM54.9817 31.0341C54.9817 29.9281 54.0852 29.0316 52.9792 29.0316V32.0316C52.4283 32.0316 51.9817 31.585 51.9817 31.0341H54.9817ZM54.9817 34.4659V31.0341H51.9817V34.4659H54.9817ZM52.9792 36.4684C54.0852 36.4684 54.9817 35.5719 54.9817 34.4659H51.9817C51.9817 33.915 52.4283 33.4684 52.9792 33.4684V36.4684ZM43.3117 36.4684H52.9792V33.4684H43.3117V36.4684ZM41.3093 34.4659C41.3093 35.5718 42.2058 36.4684 43.3117 36.4684V33.4684C43.8626 33.4684 44.3093 33.915 44.3093 34.4659H41.3093ZM41.3093 31.0341V34.4659H44.3093V31.0341H41.3093Z" fill="#000E8C" mask="url(#path-6-inside-2)"/>
<mask id="path-8-inside-3" fill="white">
<path d="M28.6386 44.1502C28.6386 47.8078 25.4331 50.7728 21.479 50.7728C17.5248 50.7728 14.3193 47.8078 14.3193 44.1502C14.3193 40.4927 17.5248 37.5277 21.479 37.5277C25.4331 37.5277 28.6386 40.4927 28.6386 44.1502Z"/>
</mask>
<path d="M28.6386 44.1502C28.6386 47.8078 25.4331 50.7728 21.479 50.7728C17.5248 50.7728 14.3193 47.8078 14.3193 44.1502C14.3193 40.4927 17.5248 37.5277 21.479 37.5277C25.4331 37.5277 28.6386 40.4927 28.6386 44.1502Z" fill="#ECE42D"/>
<path d="M27.1386 44.1502C27.1386 46.8713 24.717 49.2728 21.479 49.2728V52.2728C26.1493 52.2728 30.1386 48.7442 30.1386 44.1502H27.1386ZM21.479 49.2728C18.241 49.2728 15.8193 46.8713 15.8193 44.1502H12.8193C12.8193 48.7442 16.8087 52.2728 21.479 52.2728V49.2728ZM15.8193 44.1502C15.8193 41.4291 18.241 39.0277 21.479 39.0277V36.0277C16.8087 36.0277 12.8193 39.5563 12.8193 44.1502H15.8193ZM21.479 39.0277C24.717 39.0277 27.1386 41.4291 27.1386 44.1502H30.1386C30.1386 39.5563 26.1493 36.0277 21.479 36.0277V39.0277Z" fill="#ECE42D" mask="url(#path-8-inside-3)"/>
</svg>
