<svg width="681" height="125" viewBox="0 0 681 125" fill="none" xmlns="http://www.w3.org/2000/svg">
<path d="M201.389 0L215.421 43.1864H260.83L224.094 69.8771L238.126 113.064L201.389 86.3729L164.653 113.064L178.685 69.8771L141.948 43.1864H187.357L201.389 0Z" fill="#ECE42D"/>
<path d="M340.278 0L354.31 43.1864H399.719L362.982 69.8771L377.014 113.064L340.278 86.3729L303.541 113.064L317.573 69.8771L280.837 43.1864H326.246L340.278 0Z" fill="#ECE42D"/>
<path d="M479.167 0L493.199 43.1864H538.608L501.871 69.8771L515.903 113.064L479.167 86.3729L442.43 113.064L456.462 69.8771L419.725 43.1864H465.134L479.167 0Z" fill="#ECE42D"/>
<path d="M62.5 0L76.5321 43.1864H121.941L85.2045 69.8771L99.2366 113.064L62.5 86.3729L25.7634 113.064L39.7955 69.8771L3.05897 43.1864H48.4679L62.5 0Z" fill="#ECE42D"/>
<path d="M618.056 0L632.088 43.1864H677.497L640.76 69.8771L654.792 113.064L618.056 86.3729L581.319 113.064L595.351 69.8771L558.615 43.1864H604.024L618.056 0Z" fill="#ECE42D"/>
</svg>
